<?xml version="1.0" encoding="UTF-8" standalone="no"?>
<svg
   xmlns:dc="http://purl.org/dc/elements/1.1/"
   xmlns:cc="http://creativecommons.org/ns#"
   xmlns:rdf="http://www.w3.org/1999/02/22-rdf-syntax-ns#"
   xmlns:svg="http://www.w3.org/2000/svg"
   xmlns="http://www.w3.org/2000/svg"
   xmlns:sodipodi="http://sodipodi.sourceforge.net/DTD/sodipodi-0.dtd"
   xmlns:inkscape="http://www.inkscape.org/namespaces/inkscape"
   width="200"
   height="200"
   viewBox="0 0 160 160"
   version="1.1"
   id="svg2"
   inkscape:version="0.48.4 r9939"
   sodipodi:docname="greennav_logo.svg"
   inkscape:export-filename="/home/schoenfr/Downloads/logo150.png"
   inkscape:export-xdpi="67.5"
   inkscape:export-ydpi="67.5">
  <metadata
     id="metadata58">
    <rdf:RDF>
      <cc:Work
         rdf:about="">
        <dc:format>image/svg+xml</dc:format>
        <dc:type
           rdf:resource="http://purl.org/dc/dcmitype/StillImage" />
        <dc:title></dc:title>
      </cc:Work>
    </rdf:RDF>
  </metadata>
  <defs
     id="defs56" />
  <sodipodi:namedview
     pagecolor="#ffffff"
     bordercolor="#666666"
     borderopacity="1"
     objecttolerance="10"
     gridtolerance="10"
     guidetolerance="10"
     inkscape:pageopacity="0"
     inkscape:pageshadow="2"
     inkscape:window-width="1356"
     inkscape:window-height="772"
     id="namedview54"
     showgrid="false"
     inkscape:zoom="4.7194326"
     inkscape:cx="122.95357"
     inkscape:cy="84.37421"
     inkscape:window-x="75"
     inkscape:window-y="34"
     inkscape:window-maximized="0"
     inkscape:current-layer="svg2"
     units="cm" />
  <path
     d="m 91.931926,38.112984 c 0.16,-5.22 3.16,-9.69 5.789999,-14 1.12,4.05 3.439995,7.58 5.079995,11.4 1.58,3.46 -0.23,7.16 -2.13,10.06 -1.759995,2.5 -2.429995,5.61 -4.479995,7.92 0.35,-1.94 0.95,-3.82 1.57,-5.69 -2.699999,-2.64 -5.819999,-5.62 -5.829999,-9.69 z"
     id="path6"
     inkscape:connector-curvature="0"
     style="fill:#228e22" />
  <path
     d="m 109.21192,47.172984 c 3.46,-5.25 9.74,-7.31 15.41,-9.16 -2.42,4.07 -2.39,8.87 -3.39,13.35 -1.1,4.23 -5.26,6.56 -9.19,7.64 -3.07,0.69 -5.32,3.33 -8.54,3.51 1.52,-1.44 3.27,-2.59 5.02,-3.72 -0.83,-3.8 -1.62,-8.17 0.69,-11.62 z"
     id="path8"
     inkscape:connector-curvature="0"
     style="fill:#218e21" />
  <path
     d="m 30.821929,52.652984 c 2.86,-1.42 6.46,-3.35 9.42,-1.06 -7.31,2.78 -15.12,5.14 -21.07,10.45 -1.8,1.76 -3.74,4.2 -3.23,6.86 2.03,4.12 7.56,3.05 11.28,2.6 3.84,-0.4 6.1,-3.85 6.67,-7.39 -2.44,0.47 -4.85,1.08 -7.31,1.45 0.11,-0.61 0.34,-1.85 0.45,-2.46 3.62,-0.45 7.17,-1.19 10.7,-2.1 -1.87,5.46 -4.85,10.54 -8.27,15.16 -0.22,-0.92 -0.66,-2.77 -0.88,-3.7 -4.07,0.01 -8.5,1.43 -12.33,-0.43 -3.18,-1.67 -2.2,-5.9 -0.26,-8.16 3.9,-4.9 9.34,-8.33 14.83,-11.22 z"
     id="path10"
     inkscape:connector-curvature="0"
     style="fill:#037903" />
  <path
     d="m 23.800219,103.65948 c 3.71,-6.119996 5.54,-14.249996 12.05,-18.079996 -1.25,2.76 -3.83,4.61 -5.15,7.34 -2.05,3.96 -4.09,7.989996 -5.22,12.339996 -0.13,1.8 -1.54,2.95 -2.89,3.94 -1.1,-3.49 -1.75,-7.1 -2.8,-10.599996 -3.14,3.039996 -4.99,7.709996 -9.43,9.119996 2.8,-5.05 6.98,-9.289996 8.78,-14.909996 2.8,3 3.16,7.209996 4.66,10.849996 z"
     id="path12"
     inkscape:connector-curvature="0"
     style="fill:#010101" />
  <path
     d="m 63.190219,91.649484 c 0.4,-1.24 0.82,-2.47 1.26,-3.7 0.68,1.33 1.36,2.67 2,4.02 -0.81,-0.08 -2.45,-0.24 -3.26,-0.32 z"
     id="path14"
     inkscape:connector-curvature="0"
     style="fill:#030303" />
  <path
     style="fill:#030303"
     d="M 136.5 109.75 C 134.375 112.9125 133.1125 116.96875 129.625 118.96875 C 123.2375 121.05625 115.95625 117.6875 110.15625 121.75 C 104.89375 124.1 99.7625 129.4125 101.8125 135.625 C 105.875 136.2 109.61875 134.53125 113.15625 132.78125 C 114.98125 135.40625 116.975 138.15625 120.5625 137.90625 C 119.025 136.45625 117.40625 135.1 115.78125 133.75 C 116.93125 129.9 118.625 126.2375 119.9375 122.4375 C 122.86251 121.9875 125.7125 121.26875 128.625 120.78125 C 126 124.29375 122.3625 127.19375 120.8125 131.40625 C 120.1875 133.18125 121.44375 134.86875 123.03125 135.53125 C 126.65625 137.11875 130.78125 136.8 134.53125 135.875 C 130.89375 134.55 125.98749 135.8 123.3125 132.5 C 123.8 127.3375 128.6125 123.80625 132.1875 120.46875 L 137.875 120.90625 C 136.75 119.76875 135.5875 118.675 134.4375 117.5625 C 136.0375 115.2625 137.8625 112.6625 136.5 109.75 z M 115.90625 121.375 C 117.31436 121.28965 118.78594 121.48203 120.28125 122 C 117.46875 124.975 114.7625 128.0375 112.3125 131.3125 C 109.975 134.3875 105.6375 135.14375 102.5 132.78125 C 104.74453 127.20547 109.80445 121.74483 115.90625 121.375 z "
     transform="scale(0.8,0.8)"
     id="path16" />
  <path
     d="m 114.95022,91.569484 c 0.53,-1.17 1.03,-2.34 1.49,-3.54 0.61,1.34 1.24,2.67 1.9,3.99 -0.85,-0.12 -2.54,-0.34 -3.39,-0.45 z"
     id="path18"
     inkscape:connector-curvature="0"
     style="fill:#030303" />
  <path
     style="fill:#000000"
     d="M 76.5 116.25 C 71.2 120.5375 66.83125 125.8375 62.28125 130.875 C 61.70625 127.7875 61.16875 124.6875 60.53125 121.625 C 57.53125 120.75 54.39375 118.2 51.34375 120.375 C 45.34375 122.775 37.23125 128.28125 40.46875 135.78125 C 44.40625 136.04375 48.0375 134.5 51.4375 132.6875 C 53.3125 135.2375 55.2125 138.3125 58.875 137.8125 C 57.325 136.35 55.69375 134.99375 54.09375 133.59375 C 55.09375 130.26875 56.5125 127.09374 58 123.96875 C 59.7 127.66875 59.38125 131.75 59.59375 135.6875 C 60.45625 135.6625 62.1875 135.5875 63.0625 135.5625 C 64.3125 133.1 65.2625 130.4875 66.6875 128.125 C 70 124.20001 74.9375 121.45 76.5 116.25 z M 54.96875 121.375 C 55.929907 121.37369 56.924219 121.50156 57.90625 121.75 C 56.64375 125.22499 53.3875 127.33125 51.375 130.34375 C 49.3875 133.25625 45.66875 135.3625 42.15625 133.8125 C 40.01875 131.4375 42.9125 128.78125 44.3125 126.90625 C 46.963281 123.60547 50.803735 121.38067 54.96875 121.375 z "
     transform="scale(0.8,0.8)"
     id="path20" />
  <path
     d="m 42.291929,59.782984 c 0.74,1.01 1.43,2.05 2.05,3.14 2.56,0.22 5.45,0.29 7,2.73 -2.23,-0.27 -4.35,-1.07 -6.57,-1.43 -3.13,3.01 -3.06,8.49 -7.5,10.18 0.9,-2.42 2.3,-4.59 3.35,-6.94 0.77,-2.51 1.03,-5.14 1.67,-7.68 z"
     id="path22"
     inkscape:connector-curvature="0"
     style="fill:#037903" />
  <path
     style="fill:#010101"
     d="M 95.75 120.90625 C 91.950412 120.99543 88.288281 123.13282 85.71875 125.875 C 84.35625 127.6375 82.925 130.55 84.875 132.4375 C 88.2 134.9625 92.6875 133.925 96.5625 134.1875 C 96.9 140.0875 94.6 146.74375 88.9375 149.40625 C 84.6375 150.96875 80.75 147.875 76.8125 146.625 C 80.3625 152.975 90.63125 153.4125 94.90625 147.625 C 99.00625 142.3875 98.79375 135.4125 99.34375 129.125 C 99.58125 126.475 101.6125 122.8125 98.375 121.1875 C 97.49375 120.97187 96.626828 120.88567 95.75 120.90625 z M 96.09375 123.03125 C 96.837109 123.03164 97.603125 123.09063 98.34375 123.1875 C 97.20625 126.12499 96.075 129.05 95.3125 132.125 C 92.775 132.225 90.20625 132.5125 87.71875 131.875 C 84.71875 129.75 87.75625 126.4 89.90625 125 C 91.696875 123.52813 93.863672 123.03008 96.09375 123.03125 z "
     transform="scale(0.8,0.8)"
     id="path26" />
  <path
     d="m 137.15022,108.76948 c 1.83,-4.69 5.36,-8.39 7.96,-12.649996 0.08,1.01 0.25,3.03 0.34,4.039996 1.78,-0.859996 3.54,-1.779996 5.44,-2.389996 1.47,0.75 2.69,1.9 4.01,2.889996 l 0,0.07 c -2.29,2.88 -3.55,6.53 -6.49,8.89 0.53,-3.37 2.5,-6.21 3.72,-9.33 -6.86,-1.489996 -9.02,7.07 -14.98,8.48 z"
     id="path30"
     inkscape:connector-curvature="0"
     style="fill:#010101" />
  <path
     style="fill:#037a03"
     d="M 77.21875 77.9375 C 73.050391 77.812109 68.909375 80.434375 66.03125 83.40625 C 63.93125 85.48125 63.75 89.69375 67.0625 90.65625 C 72.1625 91.65625 77.6 91.15625 82.5 89.46875 C 78.425 89.11875 74.35625 89.51875 70.28125 89.40625 C 67.56875 89.74375 66.58125 86.83125 67.21875 84.65625 C 71.21875 85.18125 75.69375 86.65625 79.40625 84.28125 C 81.50625 83.40625 80.99375 80.90625 81.34375 79.09375 C 79.990625 78.353125 78.608203 77.979297 77.21875 77.9375 z M 78.625 79.96875 C 78.4625 80.81875 78.1625 82.49375 78 83.34375 C 75.5375 83.66875 73.15625 83.18125 71.21875 81.53125 C 73.63125 80.73125 76.1 80.15625 78.625 79.96875 z "
     transform="scale(0.8,0.8)"
     id="path32" />
  <path
     style="fill:#037903"
     d="M 95.0625 77.84375 C 92.06543 78.013672 89.1625 79.9375 86.6875 81.53125 C 83.85 83.28125 81.5375 87.94375 84.9375 90.34375 C 90.2375 91.86875 96.075 91.15 101.25 89.4375 C 96.275 89 91.2625 89.825 86.3125 89.0625 C 86.2 87.9625 85.95625 85.75625 85.84375 84.65625 C 89.88125 85.16875 94.3875 86.65625 98.125 84.21875 C 100.5125 83.28125 100.7625 78.95625 98.0625 78.34375 C 97.046875 77.93125 96.061523 77.787109 95.0625 77.84375 z M 97.34375 80 C 97.19375 80.8375 96.88125 82.50625 96.71875 83.34375 C 94.21875 83.69375 91.75625 83.125 89.78125 81.5 C 92.21875 80.6375 94.78125 80.2375 97.34375 80 z "
     transform="scale(0.8,0.8)"
     id="path34" />
  <path
     d="m 81.771929,73.272984 c 1.52,-4.75 5.409997,-8.16 7.669997,-12.54 0.17,0.96 0.52,2.87 0.69,3.83 2.28,-1.18 4.68,-2.22 7.309999,-2.08 1.75,4.33 -1.559999,8.05 -3.299999,11.74 -2.48,-3.2 2.059999,-6.12 2.469999,-9.41 -1.639999,-0.01 -3.549999,-0.54 -4.899999,0.71 -3.32,2.58 -5.699997,6.49 -9.939997,7.75 z"
     id="path36"
     inkscape:connector-curvature="0"
     style="fill:#017b01" />
  <path
     d="m 58.320219,107.70948 c 0.91,-3.59 1.98,-7.47 4.81,-10.059996 -0.34,3.609996 -0.91,8.649996 -4.81,10.059996 z"
     id="path38"
     inkscape:connector-curvature="0"
     style="fill:#010101" />
  <path
     d="m 110.24022,107.73948 c 0.73,-3.59 1.78,-7.61 4.84,-9.939996 -0.67,3.549996 -1,8.399996 -4.84,9.939996 z"
     id="path42"
     inkscape:connector-curvature="0"
     style="fill:#010101" />
  <path
     style="fill:#010101"
     d="M 163.375 121.84375 C 162.2774 121.89376 161.22578 122.15625 160.28125 122.625 C 156.00625 124.0625 151.125 125.91875 149 130.21875 C 148.3 134.83125 153.98125 135.56875 157.34375 135.71875 C 162.33125 135.58125 168.3875 134.70625 171.5 130.34375 C 173.45 125.12344 168.13126 121.62706 163.375 121.84375 z M 163.6875 124.3125 C 167.18384 124.23645 170.46875 125.61719 169.59375 129.625 C 165.09375 134.1375 157.0125 135.5625 151.5 132.0625 C 151.2375 128.6875 155.5 127.1625 158 125.75 C 159.39687 124.925 161.5897 124.35813 163.6875 124.3125 z "
     transform="scale(0.8,0.8)"
     id="path44" />
  <path
     d="m 115.74192,64.692984 c 5.09,-3.24 11.44,-2.05 16.99,-0.89 -4.02,3.54 -5.12,9.18 -9,12.77 -4.99,3.43 -11.01,-0.17 -16.49,0.92 -0.53,-0.36 -1.6,-1.08 -2.13,-1.44 1.96,-0.15 3.92,-0.25 5.88,-0.4 0.53,-3.95 1.14,-8.56 4.75,-10.96 z"
     id="path46"
     inkscape:connector-curvature="0"
     style="fill:#228e22" />
</svg>
